<svg width="184" height="52" viewBox="0 0 184 52" fill="none" xmlns="http://www.w3.org/2000/svg">
<g filter="url(#filter0_i_29_21)">
<rect y="4.30905" width="183.243" height="43.827" rx="10" fill="#8470FF"/>
</g>
<rect x="1" y="5.30905" width="181.243" height="41.827" rx="9" stroke="black" stroke-width="2"/>
<g style="mix-blend-mode:overlay">
<path d="M89 4.99999L119 5L106.5 47L76.5 47L89 4.99999Z" fill="white" fill-opacity="0.4"/>
</g>
<path d="M52.1995 28.9993L51.0235 25.4953C50.9755 25.3193 50.8955 25.0393 50.7835 24.6553C50.6715 24.2553 50.5515 23.8073 50.4235 23.3113C50.2955 22.8153 50.1595 22.3113 50.0155 21.7993C49.8875 21.2713 49.7675 20.7833 49.6555 20.3353C49.5435 19.8873 49.4475 19.5273 49.3675 19.2553C49.3035 18.9833 49.2715 18.8473 49.2715 18.8473L50.2315 16.1113L52.2475 22.4473C52.3595 22.7833 52.4555 23.1033 52.5355 23.4073C52.6155 23.7113 52.6795 23.9833 52.7275 24.2233C52.7915 24.4473 52.8395 24.6313 52.8715 24.7753C52.9035 24.9033 52.9195 24.9673 52.9195 24.9673C52.9195 24.9673 52.9355 24.9033 52.9675 24.7753C52.9995 24.6313 53.0395 24.4393 53.0875 24.1993C53.1515 23.9593 53.2155 23.6953 53.2795 23.4073C53.3595 23.1193 53.4475 22.8233 53.5435 22.5193L55.3435 16.5673L56.4715 18.8953C56.4715 18.8953 56.4315 19.0313 56.3515 19.3033C56.2875 19.5593 56.1995 19.9113 56.0875 20.3593C55.9755 20.7913 55.8475 21.2713 55.7035 21.7993C55.5755 22.3113 55.4395 22.8153 55.2955 23.3113C55.1515 23.8073 55.0235 24.2473 54.9115 24.6313C54.8155 25.0153 54.7355 25.3033 54.6715 25.4953L53.4715 28.8313C53.4395 28.9433 53.3515 28.9993 53.2075 28.9993H52.1995ZM47.9275 32.9113V16.5673C47.9275 16.3433 47.9755 16.2153 48.0715 16.1833C48.1675 16.1353 48.2715 16.1113 48.3835 16.1113H50.2315L50.3515 20.1913L49.6795 20.7913C49.6795 20.7913 49.6955 20.8873 49.7275 21.0793C49.7595 21.2553 49.7915 21.5113 49.8235 21.8473C49.8715 22.1833 49.9195 22.5833 49.9675 23.0473C50.0155 23.4953 50.0635 23.9833 50.1115 24.5113C50.1595 25.0233 50.1995 25.5673 50.2315 26.1433C50.2795 26.7193 50.3035 27.3033 50.3035 27.8953L50.3515 32.4553C50.3515 32.6153 50.3115 32.7273 50.2315 32.7913C50.1515 32.8393 49.9355 32.8713 49.5835 32.8873C49.2475 32.9033 48.6955 32.9113 47.9275 32.9113ZM55.3195 32.9113L55.4155 27.9433C55.4315 27.3513 55.4555 26.7753 55.4875 26.2153C55.5355 25.6393 55.5835 25.0873 55.6315 24.5593C55.6795 24.0153 55.7195 23.5113 55.7515 23.0473C55.7995 22.5833 55.8395 22.1833 55.8715 21.8473C55.9195 21.5113 55.9595 21.2473 55.9915 21.0553C56.0235 20.8473 56.0395 20.7433 56.0395 20.7433L55.3435 20.2153V16.5673C55.3915 16.4073 55.4395 16.2953 55.4875 16.2313C55.5515 16.1513 55.6555 16.1113 55.7995 16.1113C56.4715 16.1113 56.9435 16.1113 57.2155 16.1113C57.5035 16.1113 57.6715 16.1113 57.7195 16.1113C57.7835 16.1113 57.8155 16.1113 57.8155 16.1113V32.4553C57.8155 32.6153 57.7755 32.7273 57.6955 32.7913C57.6315 32.8393 57.4315 32.8713 57.0955 32.8873C56.7595 32.9033 56.1675 32.9113 55.3195 32.9113ZM64.1862 33.1513C63.5622 33.1513 63.0102 33.0713 62.5302 32.9113C62.0502 32.7673 61.6502 32.4793 61.3302 32.0473C61.0262 31.5993 60.7942 30.9673 60.6342 30.1513C60.4742 29.3193 60.3942 28.2313 60.3942 26.8873C60.3942 24.7113 60.7462 23.1353 61.4502 22.1593C62.1542 21.1673 63.1302 20.6713 64.3782 20.6713C65.2422 20.6713 65.9462 20.8473 66.4902 21.1993C67.0502 21.5353 67.4582 22.1513 67.7142 23.0473C67.9862 23.9433 68.1222 25.1993 68.1222 26.8153C68.1222 29.1033 67.7862 30.7353 67.1142 31.7113C66.4582 32.6713 65.4822 33.1513 64.1862 33.1513ZM64.2582 31.1113C64.4822 31.1113 64.6822 31.0153 64.8582 30.8233C65.0342 30.6313 65.1702 30.2313 65.2662 29.6233C65.3782 29.0153 65.4342 28.0953 65.4342 26.8633C65.4342 25.6793 65.3942 24.7913 65.3142 24.1993C65.2502 23.5913 65.1382 23.1913 64.9782 22.9993C64.8182 22.8073 64.5942 22.7113 64.3062 22.7113C64.0662 22.7113 63.8502 22.8153 63.6582 23.0233C63.4822 23.2313 63.3382 23.6393 63.2262 24.2473C63.1302 24.8393 63.0822 25.7193 63.0822 26.8873C63.0822 27.8313 63.1062 28.5913 63.1542 29.1673C63.2182 29.7433 63.2902 30.1673 63.3702 30.4393C63.4662 30.7113 63.5862 30.8953 63.7302 30.9913C63.8902 31.0713 64.0662 31.1113 64.2582 31.1113ZM73.0077 33.0313C72.7037 33.0313 72.4717 32.9193 72.3117 32.6953C72.1677 32.4713 72.0557 32.1913 71.9757 31.8553L69.8157 21.6313C69.7677 21.3913 69.7677 21.2233 69.8157 21.1273C69.8797 21.0313 70.1037 20.9753 70.4877 20.9593C70.8877 20.9273 71.5437 20.9113 72.4557 20.9113L73.0077 24.4873C73.0877 25.0313 73.1597 25.6393 73.2237 26.3113C73.3037 26.9833 73.3757 27.6313 73.4397 28.2553C73.5037 28.8633 73.5517 29.3673 73.5837 29.7673C73.6157 30.1513 73.6317 30.3433 73.6317 30.3433H73.6797C73.6797 30.3433 73.6957 30.1513 73.7277 29.7673C73.7597 29.3673 73.7997 28.8633 73.8477 28.2553C73.9117 27.6313 73.9757 26.9833 74.0397 26.3113C74.1197 25.6393 74.1997 25.0313 74.2797 24.4873L74.7117 21.4153C74.7437 21.2393 74.7917 21.1193 74.8557 21.0553C74.9357 20.9913 75.1517 20.9513 75.5037 20.9353C75.8717 20.9193 76.4717 20.9113 77.3037 20.9113L74.7837 32.9353C74.5437 32.9833 74.2477 33.0073 73.8957 33.0073C73.5437 33.0233 73.2477 33.0313 73.0077 33.0313ZM79.6308 32.9113V21.9913C79.6308 21.6233 79.7028 21.3673 79.8468 21.2233C79.9908 21.0793 80.2388 20.9913 80.5908 20.9593C80.9428 20.9273 81.4548 20.9113 82.1268 20.9113V32.4553C82.1268 32.6153 82.0868 32.7273 82.0068 32.7913C81.9428 32.8393 81.7348 32.8713 81.3828 32.8873C81.0468 32.9033 80.4628 32.9113 79.6308 32.9113ZM80.8308 19.6393C80.4468 19.6393 80.1508 19.5113 79.9428 19.2553C79.7348 18.9993 79.6308 18.5273 79.6308 17.8393C79.6308 17.3273 79.7348 16.9113 79.9428 16.5913C80.1668 16.2713 80.5108 16.1113 80.9748 16.1113C81.4388 16.1113 81.7508 16.2313 81.9108 16.4713C82.0708 16.7113 82.1508 17.1353 82.1508 17.7433C82.1508 18.3353 82.0308 18.7993 81.7908 19.1353C81.5668 19.4713 81.2468 19.6393 80.8308 19.6393ZM88.5284 33.1513C87.9684 33.1513 87.4564 33.0713 86.9924 32.9113C86.5444 32.7513 86.1524 32.4633 85.8164 32.0473C85.4804 31.6313 85.2164 31.0553 85.0244 30.3193C84.8484 29.5833 84.7604 28.6473 84.7604 27.5113C84.7604 26.0393 84.8724 24.8553 85.0964 23.9593C85.3364 23.0473 85.6484 22.3593 86.0324 21.8953C86.4324 21.4153 86.8884 21.0953 87.4004 20.9353C87.9124 20.7593 88.4484 20.6713 89.0084 20.6713C89.9684 20.6713 90.7124 20.9833 91.2404 21.6073C91.7844 22.2153 92.0564 23.1993 92.0564 24.5593C92.0564 25.1193 92.0324 25.7033 91.9844 26.3113C91.9524 26.9033 91.8724 27.4233 91.7444 27.8713C91.2484 27.9833 90.6884 28.0633 90.0644 28.1113C89.4404 28.1593 88.8324 28.1993 88.2404 28.2313C87.6484 28.2473 87.1604 28.2553 86.7764 28.2553C86.4084 28.2553 86.2244 28.2553 86.2244 28.2553L86.2724 26.2873C86.2724 26.2873 86.3924 26.2953 86.6324 26.3113C86.8884 26.3113 87.2004 26.3113 87.5684 26.3113C87.9524 26.3113 88.3204 26.2953 88.6724 26.2633C89.0404 26.2153 89.3364 26.1513 89.5604 26.0713C89.6084 25.9113 89.6404 25.7033 89.6564 25.4473C89.6724 25.1913 89.6804 24.9673 89.6804 24.7753C89.6804 23.9753 89.6084 23.4473 89.4644 23.1913C89.3204 22.9353 89.0564 22.8073 88.6724 22.8073C88.4484 22.8073 88.2484 22.8953 88.0724 23.0713C87.8964 23.2313 87.7524 23.4953 87.6404 23.8633C87.5284 24.2153 87.4404 24.6793 87.3764 25.2553C87.3284 25.8313 87.3044 26.5353 87.3044 27.3673C87.3044 27.9913 87.3284 28.5193 87.3764 28.9513C87.4404 29.3833 87.5364 29.7353 87.6644 30.0073C87.7924 30.2633 87.9684 30.4553 88.1924 30.5833C88.4324 30.7113 88.7284 30.7753 89.0804 30.7753C89.5444 30.7753 89.9924 30.7113 90.4244 30.5833C90.8564 30.4553 91.2804 30.2873 91.6964 30.0793C91.7764 30.3033 91.8324 30.5753 91.8644 30.8953C91.8964 31.1993 91.9124 31.4713 91.9124 31.7113C91.9124 32.0153 91.7524 32.2793 91.4324 32.5033C91.1284 32.7113 90.7204 32.8713 90.2084 32.9833C89.6964 33.0953 89.1364 33.1513 88.5284 33.1513ZM98.8636 28.9993L97.6876 25.4953C97.6396 25.3193 97.5596 25.0393 97.4476 24.6553C97.3356 24.2553 97.2156 23.8073 97.0876 23.3113C96.9596 22.8153 96.8236 22.3113 96.6796 21.7993C96.5516 21.2713 96.4316 20.7833 96.3196 20.3353C96.2076 19.8873 96.1116 19.5273 96.0316 19.2553C95.9676 18.9833 95.9356 18.8473 95.9356 18.8473L96.8956 16.1113L98.9116 22.4473C99.0236 22.7833 99.1196 23.1033 99.1996 23.4073C99.2796 23.7113 99.3436 23.9833 99.3916 24.2233C99.4556 24.4473 99.5036 24.6313 99.5356 24.7753C99.5676 24.9033 99.5836 24.9673 99.5836 24.9673C99.5836 24.9673 99.5996 24.9033 99.6316 24.7753C99.6636 24.6313 99.7036 24.4393 99.7516 24.1993C99.8156 23.9593 99.8796 23.6953 99.9436 23.4073C100.024 23.1193 100.112 22.8233 100.208 22.5193L102.008 16.5673L103.136 18.8953C103.136 18.8953 103.096 19.0313 103.016 19.3033C102.952 19.5593 102.864 19.9113 102.752 20.3593C102.64 20.7913 102.512 21.2713 102.368 21.7993C102.24 22.3113 102.104 22.8153 101.96 23.3113C101.816 23.8073 101.688 24.2473 101.576 24.6313C101.48 25.0153 101.4 25.3033 101.336 25.4953L100.136 28.8313C100.104 28.9433 100.016 28.9993 99.8716 28.9993H98.8636ZM94.5916 32.9113V16.5673C94.5916 16.3433 94.6396 16.2153 94.7356 16.1833C94.8316 16.1353 94.9356 16.1113 95.0476 16.1113H96.8956L97.0156 20.1913L96.3436 20.7913C96.3436 20.7913 96.3596 20.8873 96.3916 21.0793C96.4236 21.2553 96.4556 21.5113 96.4876 21.8473C96.5356 22.1833 96.5836 22.5833 96.6316 23.0473C96.6796 23.4953 96.7276 23.9833 96.7756 24.5113C96.8236 25.0233 96.8636 25.5673 96.8956 26.1433C96.9436 26.7193 96.9676 27.3033 96.9676 27.8953L97.0156 32.4553C97.0156 32.6153 96.9756 32.7273 96.8956 32.7913C96.8156 32.8393 96.5996 32.8713 96.2476 32.8873C95.9116 32.9033 95.3596 32.9113 94.5916 32.9113ZM101.984 32.9113L102.08 27.9433C102.096 27.3513 102.12 26.7753 102.152 26.2153C102.2 25.6393 102.248 25.0873 102.296 24.5593C102.344 24.0153 102.384 23.5113 102.416 23.0473C102.464 22.5833 102.504 22.1833 102.536 21.8473C102.584 21.5113 102.624 21.2473 102.656 21.0553C102.688 20.8473 102.704 20.7433 102.704 20.7433L102.008 20.2153V16.5673C102.056 16.4073 102.104 16.2953 102.152 16.2313C102.216 16.1513 102.32 16.1113 102.464 16.1113C103.136 16.1113 103.608 16.1113 103.88 16.1113C104.168 16.1113 104.336 16.1113 104.384 16.1113C104.448 16.1113 104.48 16.1113 104.48 16.1113V32.4553C104.48 32.6153 104.44 32.7273 104.36 32.7913C104.296 32.8393 104.096 32.8713 103.76 32.8873C103.424 32.9033 102.832 32.9113 101.984 32.9113ZM110.85 33.1513C110.226 33.1513 109.674 33.0713 109.194 32.9113C108.714 32.7673 108.314 32.4793 107.994 32.0473C107.69 31.5993 107.458 30.9673 107.298 30.1513C107.138 29.3193 107.058 28.2313 107.058 26.8873C107.058 24.7113 107.41 23.1353 108.114 22.1593C108.818 21.1673 109.794 20.6713 111.042 20.6713C111.906 20.6713 112.61 20.8473 113.154 21.1993C113.714 21.5353 114.122 22.1513 114.378 23.0473C114.65 23.9433 114.786 25.1993 114.786 26.8153C114.786 29.1033 114.45 30.7353 113.778 31.7113C113.122 32.6713 112.146 33.1513 110.85 33.1513ZM110.922 31.1113C111.146 31.1113 111.346 31.0153 111.522 30.8233C111.698 30.6313 111.834 30.2313 111.93 29.6233C112.042 29.0153 112.098 28.0953 112.098 26.8633C112.098 25.6793 112.058 24.7913 111.978 24.1993C111.914 23.5913 111.802 23.1913 111.642 22.9993C111.482 22.8073 111.258 22.7113 110.97 22.7113C110.73 22.7113 110.514 22.8153 110.322 23.0233C110.146 23.2313 110.002 23.6393 109.89 24.2473C109.794 24.8393 109.746 25.7193 109.746 26.8873C109.746 27.8313 109.77 28.5913 109.818 29.1673C109.882 29.7433 109.954 30.1673 110.034 30.4393C110.13 30.7113 110.25 30.8953 110.394 30.9913C110.554 31.0713 110.73 31.1113 110.922 31.1113ZM120.863 33.1513C120.239 33.1513 119.687 33.0713 119.207 32.9113C118.727 32.7673 118.327 32.4793 118.007 32.0473C117.703 31.5993 117.471 30.9673 117.311 30.1513C117.151 29.3193 117.071 28.2313 117.071 26.8873C117.071 24.7113 117.423 23.1353 118.127 22.1593C118.831 21.1673 119.807 20.6713 121.055 20.6713C121.919 20.6713 122.623 20.8473 123.167 21.1993C123.727 21.5353 124.135 22.1513 124.391 23.0473C124.663 23.9433 124.799 25.1993 124.799 26.8153C124.799 29.1033 124.463 30.7353 123.791 31.7113C123.135 32.6713 122.159 33.1513 120.863 33.1513ZM120.935 31.1113C121.159 31.1113 121.359 31.0153 121.535 30.8233C121.711 30.6313 121.847 30.2313 121.943 29.6233C122.055 29.0153 122.111 28.0953 122.111 26.8633C122.111 25.6793 122.071 24.7913 121.991 24.1993C121.927 23.5913 121.815 23.1913 121.655 22.9993C121.495 22.8073 121.271 22.7113 120.983 22.7113C120.743 22.7113 120.527 22.8153 120.335 23.0233C120.159 23.2313 120.015 23.6393 119.903 24.2473C119.807 24.8393 119.759 25.7193 119.759 26.8873C119.759 27.8313 119.783 28.5913 119.831 29.1673C119.895 29.7433 119.967 30.1673 120.047 30.4393C120.143 30.7113 120.263 30.8953 120.407 30.9913C120.567 31.0713 120.743 31.1113 120.935 31.1113ZM131.019 33.1513C130.491 33.1513 129.995 33.0873 129.531 32.9593C129.067 32.8473 128.651 32.5993 128.283 32.2153C127.915 31.8313 127.627 31.2553 127.419 30.4873C127.211 29.7193 127.107 28.6953 127.107 27.4153C127.107 25.7993 127.259 24.4953 127.563 23.5033C127.867 22.5113 128.275 21.7913 128.787 21.3433C129.299 20.8953 129.883 20.6713 130.539 20.6713C130.875 20.6713 131.163 20.7113 131.403 20.7913C131.659 20.8713 131.875 20.9833 132.051 21.1273V16.3513C132.051 15.9833 132.107 15.7273 132.219 15.5833C132.347 15.4393 132.587 15.3513 132.939 15.3193C133.307 15.2873 133.827 15.2713 134.499 15.2713V32.4313C134.099 32.6073 133.611 32.7673 133.035 32.9113C132.459 33.0713 131.787 33.1513 131.019 33.1513ZM131.043 30.9913C131.235 30.9913 131.411 30.9673 131.571 30.9193C131.747 30.8713 131.907 30.7993 132.051 30.7033V22.9513C131.955 22.8873 131.843 22.8473 131.715 22.8313C131.603 22.7993 131.483 22.7833 131.355 22.7833C131.195 22.7833 131.027 22.8233 130.851 22.9033C130.675 22.9833 130.507 23.1753 130.347 23.4793C130.203 23.7673 130.083 24.1993 129.987 24.7753C129.907 25.3513 129.867 26.1353 129.867 27.1273C129.867 27.9113 129.891 28.5513 129.939 29.0473C129.987 29.5433 130.059 29.9353 130.155 30.2233C130.251 30.5113 130.371 30.7113 130.515 30.8233C130.675 30.9353 130.851 30.9913 131.043 30.9913Z" fill="black"/>
<defs>
<filter id="filter0_i_29_21" x="0" y="4.30905" width="183.243" height="43.827" filterUnits="userSpaceOnUse" color-interpolation-filters="sRGB">
<feFlood flood-opacity="0" result="BackgroundImageFix"/>
<feBlend mode="normal" in="SourceGraphic" in2="BackgroundImageFix" result="shape"/>
<feColorMatrix in="SourceAlpha" type="matrix" values="0 0 0 0 0 0 0 0 0 0 0 0 0 0 0 0 0 0 127 0" result="hardAlpha"/>
<feOffset dx="-8" dy="-8"/>
<feComposite in2="hardAlpha" operator="arithmetic" k2="-1" k3="1"/>
<feColorMatrix type="matrix" values="0 0 0 0 0 0 0 0 0 0 0 0 0 0 0 0 0 0 0.18 0"/>
<feBlend mode="normal" in2="shape" result="effect1_innerShadow_29_21"/>
</filter>
</defs>
</svg>
