<svg width="54" height="54" viewBox="0 0 54 54" fill="none" xmlns="http://www.w3.org/2000/svg">
<path d="M43.5533 48.0703H31.0312V37.7578V36.2578H29.5312H23.625H22.125V37.7578V48.0703H10.4466C10.3417 48.0703 10.2591 47.9878 10.2591 47.8828V32.3947V30.8947H8.75913H6.47046C5.43736 30.8947 4.59546 30.0528 4.59546 29.0197C4.59546 28.5238 4.79408 28.0452 5.14714 27.6919C5.14727 27.6918 5.1474 27.6917 5.14753 27.6915L26.8684 5.98645L26.8699 5.98502C26.8869 5.96792 26.9072 5.95435 26.9295 5.94509C26.9519 5.93583 26.9758 5.93106 27 5.93106C27.0241 5.93106 27.0481 5.93583 27.0704 5.94509L27.6443 4.56141L27.0704 5.94509C27.0927 5.95435 27.113 5.96792 27.13 5.98503L27.1315 5.98645L48.8524 27.6915C49.5853 28.4245 49.5853 29.6121 48.8555 30.3448L48.8533 30.3471C48.5056 30.6977 48.0309 30.8947 47.5294 30.8947H45.2408H43.7408V32.3947V47.8828C43.7408 47.9878 43.6582 48.0703 43.5533 48.0703Z" fill="#BC93F0" stroke="black" stroke-width="3"/>
</svg>
