<svg width="30" height="29" viewBox="0 0 30 29" fill="none" xmlns="http://www.w3.org/2000/svg">
<path d="M25.1972 27.0759H17.839V20.9133V19.6633H16.589H12.8827H11.6327V20.9133V27.0759H4.80409V17.5479V16.2979H3.55409H2.11789C1.6401 16.2979 1.25 15.9078 1.25 15.43C1.25 15.2012 1.34172 14.9792 1.50569 14.8151L1.50601 14.8148L15.0006 1.33L28.4952 14.8148C28.4953 14.8148 28.4954 14.8149 28.4954 14.815C28.4955 14.815 28.4955 14.8151 28.4955 14.8151C28.8347 15.1546 28.8346 15.7045 28.4968 16.0436L28.4949 16.0455C28.3354 16.2063 28.1167 16.2979 27.8834 16.2979H26.4472H25.1972V17.5479V27.0759ZM15.1375 1.19323C15.1371 1.19363 15.1367 1.19402 15.1363 1.19442L15.1375 1.19323Z" stroke="black" stroke-width="2.5"/>
</svg>
