<svg width="30" height="30" viewBox="0 0 30 30" fill="none" xmlns="http://www.w3.org/2000/svg">
<path d="M29.9425 18.1493C29.8638 17.8958 29.7057 17.6743 29.4914 17.5177C29.2771 17.3611 29.0181 17.2777 28.7528 17.2798L28.4172 17.3408C26.2325 17.9439 23.927 17.9566 21.7358 17.3776C19.5446 16.7987 17.5462 15.6488 15.9444 14.0453C14.3426 12.4418 13.1948 10.4421 12.618 8.25015C12.0413 6.05819 12.0562 3.75245 12.6613 1.56815C12.6912 1.47967 12.7067 1.38696 12.7071 1.29357C12.7216 1.09672 12.6875 0.899309 12.6078 0.718708C12.5282 0.538106 12.4054 0.37984 12.2502 0.25782C12.0951 0.135801 11.9123 0.0537641 11.7181 0.0189218C11.5238 -0.0159206 11.3239 -0.00250171 11.136 0.0579986C8.57181 0.776803 6.24043 2.15452 4.37383 4.05411C2.50723 5.9537 1.17047 8.30894 0.496519 10.8856C-0.177434 13.4622 -0.16509 16.1704 0.532323 18.7408C1.22974 21.3111 2.58791 23.6541 4.47175 25.5366C6.35559 27.4191 8.69942 28.7755 11.2701 29.4709C13.8408 30.1663 16.5487 30.1764 19.1246 29.5003C21.7004 28.8242 24.0543 27.4854 25.9522 25.6171C27.8501 23.7488 29.2258 21.416 29.9425 18.851C30.0192 18.6234 30.0192 18.3769 29.9425 18.1493V18.1493ZM15.2542 27.561C12.3319 27.5634 9.49652 26.5665 7.21851 24.7358C4.94051 22.905 3.35676 20.3505 2.72997 17.4958C2.10319 14.6412 2.47104 11.658 3.77251 9.04122C5.07398 6.42441 7.23085 4.33119 9.88534 3.1088C9.59812 5.41097 9.8403 7.74833 10.5934 9.94269C11.3465 12.137 12.5907 14.1305 14.231 15.771C15.8713 17.4115 17.8646 18.6557 20.0587 19.4089C22.2529 20.1621 24.59 20.4043 26.8919 20.117C25.86 22.3356 24.2172 24.2141 22.1561 25.5325C20.095 26.8508 17.7009 27.5545 15.2542 27.561V27.561Z" fill="black"/>
</svg>
