<svg width="31" height="31" viewBox="0 0 31 31" fill="none" xmlns="http://www.w3.org/2000/svg">
<path d="M14.3382 0.746227C17.3263 0.510659 20.3155 1.18793 22.9103 2.68841C25.505 4.1889 27.583 6.44187 28.8693 9.14921C30.1556 11.8566 30.5895 14.8906 30.1137 17.85C29.6378 20.8094 28.2746 23.5545 26.2045 25.7221C24.1344 27.8898 21.4548 29.3778 18.5205 29.9892C15.5862 30.6007 12.5353 30.3068 9.77168 29.1464C7.00805 27.986 4.66188 26.0138 3.04364 23.4908C1.4254 20.9678 0.611367 18.0129 0.709252 15.0171C0.720046 14.6491 0.876581 14.3005 1.14442 14.0479C1.41226 13.7954 1.76946 13.6595 2.13745 13.6703C2.50544 13.6811 2.85407 13.8377 3.10664 14.1055C3.35922 14.3733 3.49505 14.7305 3.48425 15.0985C3.3905 17.9343 4.30251 20.7119 6.05901 22.9402C7.81552 25.1684 10.3034 26.7038 13.0827 27.2748C15.8619 27.8458 18.7536 27.4157 21.2464 26.0605C23.7391 24.7052 25.6723 22.5122 26.7042 19.8692C27.7361 17.2261 27.8002 14.3033 26.8851 11.6176C25.97 8.9319 24.1348 6.65627 21.7038 5.1931C19.2728 3.72993 16.4028 3.17349 13.6011 3.62216C10.7995 4.07084 8.24676 5.49573 6.3943 7.64488L6.0169 8.10553H9.48935L9.67805 8.11848C10.0116 8.16267 10.3176 8.32653 10.5393 8.57955C10.761 8.83258 10.8833 9.15754 10.8833 9.49395C10.8833 9.83037 10.761 10.1553 10.5393 10.4084C10.3176 10.6614 10.0116 10.8252 9.67805 10.8694L9.48935 10.8805H3.01805L2.82935 10.8694C2.5291 10.8281 2.25063 10.6897 2.03649 10.4752C1.82235 10.2607 1.68432 9.98204 1.6435 9.68173L1.63055 9.49303V2.09303L1.6435 1.90618C1.68432 1.60586 1.82235 1.32717 2.03649 1.1127C2.25063 0.898223 2.5291 0.759763 2.82935 0.718477L3.01805 0.707377L3.20675 0.718477C3.507 0.759763 3.78548 0.898223 3.99962 1.1127C4.21376 1.32717 4.35178 1.60586 4.3926 1.90618L4.40555 2.09303L4.4037 5.70608C6.94322 2.82251 10.5073 1.04314 14.3382 0.746227ZM15.0375 8.10553L15.2262 8.11848C15.5265 8.15976 15.8049 8.29822 16.0191 8.5127C16.2332 8.72717 16.3712 9.00586 16.4121 9.30618L16.425 9.49303V15.5L19.6625 15.5018L19.8512 15.5148C20.1833 15.5605 20.4876 15.7249 20.7079 15.9775C20.9282 16.2302 21.0496 16.5541 21.0496 16.8893C21.0496 17.2246 20.9282 17.5484 20.7079 17.8011C20.4876 18.0538 20.1833 18.2182 19.8512 18.2639L19.6625 18.2768H15.0375L14.8488 18.2639C14.5488 18.2227 14.2706 18.0845 14.0564 17.8704C13.8423 17.6563 13.7041 17.378 13.663 17.078L13.65 16.8875V9.49303L13.663 9.30618C13.7038 9.00586 13.8418 8.72717 14.0559 8.5127C14.2701 8.29822 14.5486 8.15976 14.8488 8.11848L15.0375 8.10738V8.10553Z" fill="black"/>
</svg>
