<svg width="226" height="90" viewBox="0 0 226 90" fill="none" xmlns="http://www.w3.org/2000/svg">
<g filter="url(#filter0_i_30_44)">
<rect y="12.1743" width="226" height="73" rx="10" fill="#8470FF"/>
</g>
<rect x="1" y="13.1743" width="224" height="71" rx="9" stroke="black" stroke-width="2"/>
<g style="mix-blend-mode:overlay">
<path d="M111.191 12.6743L150.438 12.6743L134.5 83.1606L93.7603 83.1606L111.191 12.6743Z" fill="white" fill-opacity="0.4"/>
</g>
<path d="M38.5022 48.4493C38.0602 48.4493 37.8132 48.3843 37.7612 48.2543C37.7092 48.0983 37.6832 47.8253 37.6832 47.4353V32.6543C37.6832 32.6283 37.6832 32.4983 37.6832 32.2643C37.7092 32.0043 37.9172 31.8743 38.3072 31.8743H41.7392C43.3772 31.8743 44.7422 32.1213 45.8342 32.6153C46.9522 33.0833 47.7842 33.8893 48.3302 35.0333C48.9022 36.1773 49.1882 37.7633 49.1882 39.7913C49.1882 41.5073 48.9802 42.9243 48.5642 44.0423C48.1742 45.1603 47.6282 46.0443 46.9262 46.6943C46.2242 47.3443 45.4312 47.7993 44.5472 48.0593C43.6892 48.3193 42.7922 48.4493 41.8562 48.4493H38.5022ZM37.2542 59.1743V32.6153C37.2542 32.6153 37.2802 32.4983 37.3322 32.2643C37.4102 32.0043 37.6312 31.8743 37.9952 31.8743H40.4912C40.8812 31.8743 41.1022 32.0043 41.1542 32.2643C41.2062 32.4983 41.2322 32.6153 41.2322 32.6153V58.4333C41.2322 58.6933 41.1672 58.8753 41.0372 58.9793C40.9332 59.0573 40.5952 59.1093 40.0232 59.1353C39.4772 59.1613 38.5542 59.1743 37.2542 59.1743ZM47.6672 59.2913C47.3552 59.2913 46.9912 59.2783 46.5752 59.2523C46.1852 59.2263 45.7692 59.2003 45.3272 59.1743C45.2492 56.9123 45.0282 55.0273 44.6642 53.5193C44.3002 52.0113 43.8972 50.8283 43.4552 49.9703C43.0132 49.1123 42.6232 48.5013 42.2852 48.1373C41.9732 47.7733 41.8172 47.5913 41.8172 47.5913C41.8172 47.5913 41.7782 47.5003 41.7002 47.3183C41.6482 47.1363 41.7782 46.9673 42.0902 46.8113L44.3132 45.5243C44.7032 45.5243 44.9502 45.6673 45.0542 45.9533C45.0542 45.9533 45.2752 46.1743 45.7172 46.6163C46.1592 47.0583 46.6662 47.7733 47.2382 48.7613C47.8362 49.7493 48.3692 51.0363 48.8372 52.6223C49.3312 54.1823 49.6172 56.0933 49.6952 58.3553C49.6952 58.6933 49.5912 58.9403 49.3832 59.0963C49.2012 59.2263 48.6292 59.2913 47.6672 59.2913ZM41.2322 44.7833H42.3242C42.8442 44.7833 43.2732 44.6403 43.6112 44.3543C43.9752 44.0423 44.2482 43.5093 44.4302 42.7553C44.6382 42.0013 44.7422 40.9483 44.7422 39.5963C44.7422 38.6343 44.6642 37.8413 44.5082 37.2173C44.3782 36.5673 44.1572 36.0993 43.8452 35.8133C43.5332 35.5013 43.1042 35.3453 42.5582 35.3453H41.2322V44.7833ZM59.2185 59.5643C58.3085 59.5643 57.4765 59.4343 56.7225 59.1743C55.9945 58.9143 55.3575 58.4463 54.8115 57.7703C54.2655 57.0943 53.8365 56.1583 53.5245 54.9623C53.2385 53.7663 53.0955 52.2453 53.0955 50.3993C53.0955 48.0073 53.2775 46.0833 53.6415 44.6273C54.0315 43.1453 54.5385 42.0273 55.1625 41.2733C55.8125 40.4933 56.5535 39.9733 57.3855 39.7133C58.2175 39.4273 59.0885 39.2843 59.9985 39.2843C61.5585 39.2843 62.7675 39.7913 63.6255 40.8053C64.5095 41.7933 64.9515 43.3923 64.9515 45.6023C64.9515 46.5123 64.9125 47.4613 64.8345 48.4493C64.7825 49.4113 64.6525 50.2563 64.4445 50.9843C63.6385 51.1663 62.7285 51.2963 61.7145 51.3743C60.7005 51.4523 59.7125 51.5173 58.7505 51.5693C57.7885 51.5953 56.9955 51.6083 56.3715 51.6083C55.7735 51.6083 55.4745 51.6083 55.4745 51.6083L55.5525 48.4103C55.5525 48.4103 55.7475 48.4233 56.1375 48.4493C56.5535 48.4493 57.0605 48.4493 57.6585 48.4493C58.2825 48.4493 58.8805 48.4233 59.4525 48.3713C60.0505 48.2933 60.5315 48.1893 60.8955 48.0593C60.9735 47.7993 61.0255 47.4613 61.0515 47.0453C61.0775 46.6293 61.0905 46.2653 61.0905 45.9533C61.0905 44.6533 60.9735 43.7953 60.7395 43.3793C60.5055 42.9633 60.0765 42.7553 59.4525 42.7553C59.0885 42.7553 58.7635 42.8983 58.4775 43.1843C58.1915 43.4443 57.9575 43.8733 57.7755 44.4713C57.5935 45.0433 57.4505 45.7973 57.3465 46.7333C57.2685 47.6693 57.2295 48.8133 57.2295 50.1653C57.2295 51.1793 57.2685 52.0373 57.3465 52.7393C57.4505 53.4413 57.6065 54.0133 57.8145 54.4553C58.0225 54.8713 58.3085 55.1833 58.6725 55.3913C59.0625 55.5993 59.5435 55.7033 60.1155 55.7033C60.8695 55.7033 61.5975 55.5993 62.2995 55.3913C63.0015 55.1833 63.6905 54.9103 64.3665 54.5723C64.4965 54.9363 64.5875 55.3783 64.6395 55.8983C64.6915 56.3923 64.7175 56.8343 64.7175 57.2243C64.7175 57.7183 64.4575 58.1473 63.9375 58.5113C63.4435 58.8493 62.7805 59.1093 61.9485 59.2913C61.1165 59.4733 60.2065 59.5643 59.2185 59.5643ZM74.5702 66.8183C72.8282 66.8183 71.5022 66.5973 70.5922 66.1553C69.6822 65.7133 69.0712 65.1543 68.7592 64.4783C68.4472 63.8023 68.2912 63.1393 68.2912 62.4893C68.2912 61.5533 68.5512 60.6953 69.0712 59.9153C69.5912 59.1613 70.2672 58.4983 71.0992 57.9263C71.9312 57.3543 72.8412 56.9253 73.8292 56.6393L75.1552 57.8093C74.6872 57.9913 74.2322 58.2773 73.7902 58.6673C73.3742 59.0573 73.0362 59.4863 72.7762 59.9543C72.5422 60.4483 72.4252 60.9553 72.4252 61.4753C72.4252 61.8393 72.4902 62.1513 72.6202 62.4113C72.7762 62.6713 73.0362 62.8663 73.4002 62.9963C73.7902 63.1263 74.3232 63.1913 74.9992 63.1913C76.0912 63.1913 76.8582 62.8923 77.3002 62.2943C77.7422 61.7223 77.9632 61.1633 77.9632 60.6173C77.9632 60.1493 77.8592 59.7593 77.6512 59.4473C77.4692 59.1613 77.0532 58.9403 76.4032 58.7843C75.7792 58.6023 74.8172 58.4723 73.5172 58.3943C72.5552 58.3163 71.7232 58.1863 71.0212 58.0043C70.3192 57.7963 69.7732 57.5103 69.3832 57.1463C68.9932 56.7823 68.8112 56.3403 68.8372 55.8203C68.8632 55.3783 68.9932 54.9363 69.2272 54.4943C69.4612 54.0523 69.8122 53.5843 70.2802 53.0903C70.7742 52.5963 71.3852 52.0893 72.1132 51.5693L74.4922 52.3493C74.4402 52.3753 74.2972 52.5053 74.0632 52.7393C73.8292 52.9733 73.6082 53.2463 73.4002 53.5583C73.1922 53.8443 73.0882 54.1173 73.0882 54.3773C73.0882 54.7153 73.4522 54.9233 74.1802 55.0013C74.9082 55.0533 75.8052 55.1573 76.8712 55.3133C77.9632 55.4953 78.8862 55.7683 79.6402 56.1323C80.3942 56.4703 80.9792 56.9513 81.3952 57.5753C81.8112 58.1993 82.0192 59.0313 82.0192 60.0713C82.0192 61.2933 81.7592 62.4113 81.2392 63.4253C80.7452 64.4653 79.9522 65.2843 78.8602 65.8823C77.7682 66.5063 76.3382 66.8183 74.5702 66.8183ZM75.0382 53.1683C73.5042 53.1683 72.2952 52.8823 71.4112 52.3103C70.5272 51.7123 69.8902 50.9193 69.5002 49.9313C69.1362 48.9173 68.9542 47.7733 68.9542 46.4993C68.9542 44.7053 69.2142 43.2883 69.7342 42.2483C70.2802 41.1823 71.0472 40.4283 72.0352 39.9863C73.0232 39.5183 74.1802 39.2843 75.5062 39.2843C75.8442 39.2843 76.2082 39.3233 76.5982 39.4013C77.0142 39.4793 77.4042 39.5963 77.7682 39.7523L78.5092 41.5073C79.3672 41.8973 80.0562 42.5083 80.5762 43.3403C81.0962 44.1723 81.3562 45.2773 81.3562 46.6553C81.3562 48.0593 81.1352 49.2423 80.6932 50.2043C80.2772 51.1663 79.6012 51.9073 78.6652 52.4273C77.7552 52.9213 76.5462 53.1683 75.0382 53.1683ZM75.2332 50.2043C75.7012 50.2043 76.0912 50.0743 76.4032 49.8143C76.7152 49.5283 76.9492 49.0473 77.1052 48.3713C77.2612 47.6953 77.3392 46.7853 77.3392 45.6413C77.3392 44.3413 77.1832 43.4313 76.8712 42.9113C76.5592 42.3913 76.0522 42.1313 75.3502 42.1313C74.9342 42.1313 74.5572 42.2613 74.2192 42.5213C73.8812 42.7813 73.6212 43.2103 73.4392 43.8083C73.2572 44.4063 73.1662 45.2513 73.1662 46.3433C73.1662 47.2533 73.2182 47.9943 73.3222 48.5663C73.4522 49.1383 73.6602 49.5543 73.9462 49.8143C74.2582 50.0743 74.6872 50.2043 75.2332 50.2043ZM81.2392 43.0283C80.8492 43.0283 80.3552 42.9503 79.7572 42.7943C79.1852 42.6123 78.6002 42.4043 78.0022 42.1703C77.4042 41.9363 76.9102 41.7283 76.5202 41.5463C76.1562 41.3643 75.9742 41.2733 75.9742 41.2733L76.0132 39.6353H82.0972C82.2272 39.8433 82.3312 40.1033 82.4092 40.4153C82.4872 40.7273 82.5262 41.1043 82.5262 41.5463C82.5262 42.0923 82.4092 42.4823 82.1752 42.7163C81.9412 42.9243 81.6292 43.0283 81.2392 43.0283ZM86.1822 59.1743V41.4293C86.1822 40.8313 86.2992 40.4153 86.5332 40.1813C86.7672 39.9473 87.1702 39.8043 87.7422 39.7523C88.3142 39.7003 89.1462 39.6743 90.2382 39.6743V58.4333C90.2382 58.6933 90.1732 58.8753 90.0432 58.9793C89.9392 59.0573 89.6012 59.1093 89.0292 59.1353C88.4832 59.1613 87.5342 59.1743 86.1822 59.1743ZM88.1322 37.6073C87.5082 37.6073 87.0272 37.3993 86.6892 36.9833C86.3512 36.5673 86.1822 35.8003 86.1822 34.6823C86.1822 33.8503 86.3512 33.1743 86.6892 32.6543C87.0532 32.1343 87.6122 31.8743 88.3662 31.8743C89.1202 31.8743 89.6272 32.0693 89.8872 32.4593C90.1472 32.8493 90.2772 33.5383 90.2772 34.5263C90.2772 35.4883 90.0822 36.2423 89.6922 36.7883C89.3282 37.3343 88.8082 37.6073 88.1322 37.6073ZM99.1198 59.5643C97.8198 59.5643 96.7278 59.4083 95.8438 59.0963C94.9598 58.7583 94.5178 58.1863 94.5178 57.3803C94.5178 57.0943 94.5568 56.7563 94.6348 56.3663C94.7388 55.9503 94.9078 55.5343 95.1418 55.1183C95.7138 55.4043 96.2988 55.6253 96.8968 55.7813C97.4948 55.9373 98.0928 56.0153 98.6908 56.0153C99.4708 56.0153 100.056 55.8463 100.446 55.5083C100.862 55.1703 101.07 54.7023 101.07 54.1043C101.07 53.7403 101.005 53.3633 100.875 52.9733C100.745 52.5573 100.446 52.1153 99.9778 51.6473L96.4678 48.1763C95.7398 47.4483 95.2198 46.7333 94.9078 46.0313C94.6218 45.3033 94.4788 44.6403 94.4788 44.0423C94.4788 43.1323 94.6868 42.3263 95.1028 41.6243C95.5188 40.8963 96.1948 40.3243 97.1308 39.9083C98.0928 39.4923 99.3538 39.2843 100.914 39.2843C102.318 39.2843 103.358 39.4273 104.034 39.7133C104.736 39.9733 105.191 40.2853 105.399 40.6493C105.607 41.0133 105.711 41.3513 105.711 41.6633C105.711 42.3393 105.451 42.9893 104.931 43.6133C104.385 43.3013 103.826 43.0803 103.254 42.9503C102.682 42.7943 102.071 42.7163 101.421 42.7163C100.693 42.7163 100.134 42.8463 99.7438 43.1063C99.3798 43.3403 99.1978 43.6783 99.1978 44.1203C99.1978 44.3543 99.2628 44.6273 99.3928 44.9393C99.5488 45.2513 99.8998 45.6673 100.446 46.1873L103.566 49.1513C104.372 50.0093 104.918 50.7893 105.204 51.4913C105.49 52.1933 105.633 53.0383 105.633 54.0263C105.633 55.7423 105.048 57.0943 103.878 58.0823C102.708 59.0703 101.122 59.5643 99.1198 59.5643ZM115.194 59.5643C114.05 59.5643 113.192 59.3433 112.62 58.9013C112.074 58.4593 111.71 57.8223 111.528 56.9903C111.346 56.1323 111.255 55.1313 111.255 53.9873V43.0673H108.798C108.798 42.0533 108.811 41.3123 108.837 40.8443C108.863 40.3503 108.928 40.0383 109.032 39.9083C109.162 39.7523 109.357 39.6743 109.617 39.6743H111.255V33.9413C111.255 33.4993 111.359 33.2003 111.567 33.0443C111.801 32.8623 112.204 32.7583 112.776 32.7323C113.348 32.6803 114.167 32.6543 115.233 32.6543V39.6743H118.665C118.665 40.6883 118.652 41.4423 118.626 41.9363C118.626 42.4043 118.561 42.7163 118.431 42.8723C118.327 43.0023 118.145 43.0673 117.885 43.0673H115.233V53.9093C115.233 54.2733 115.246 54.6373 115.272 55.0013C115.298 55.3653 115.389 55.6513 115.545 55.8593C115.701 56.0673 115.961 56.1713 116.325 56.1713C116.715 56.1713 117.066 56.1323 117.378 56.0543C117.69 55.9763 118.041 55.8333 118.431 55.6253C118.483 55.8853 118.535 56.1843 118.587 56.5223C118.639 56.8343 118.665 57.1853 118.665 57.5753C118.665 58.1473 118.47 58.5763 118.08 58.8623C117.716 59.1483 117.261 59.3303 116.715 59.4083C116.195 59.5123 115.688 59.5643 115.194 59.5643ZM122.882 59.1743V41.0393C123.584 40.5453 124.39 40.1293 125.3 39.7913C126.236 39.4533 127.224 39.2843 128.264 39.2843C129.304 39.2843 130.006 39.4403 130.37 39.7523C130.734 40.0383 130.916 40.4933 130.916 41.1173C130.916 41.3773 130.89 41.7283 130.838 42.1703C130.786 42.5863 130.669 43.0153 130.487 43.4573C130.227 43.3273 129.967 43.2363 129.707 43.1843C129.447 43.1323 129.187 43.1063 128.927 43.1063C128.641 43.1063 128.316 43.1713 127.952 43.3013C127.588 43.4053 127.263 43.5743 126.977 43.8083L126.938 58.4333C126.938 58.6933 126.873 58.8753 126.743 58.9793C126.639 59.0573 126.301 59.1093 125.729 59.1353C125.183 59.1613 124.234 59.1743 122.882 59.1743ZM139.549 59.5643C138.639 59.5643 137.807 59.4343 137.053 59.1743C136.325 58.9143 135.688 58.4463 135.142 57.7703C134.596 57.0943 134.167 56.1583 133.855 54.9623C133.569 53.7663 133.426 52.2453 133.426 50.3993C133.426 48.0073 133.608 46.0833 133.972 44.6273C134.362 43.1453 134.869 42.0273 135.493 41.2733C136.143 40.4933 136.884 39.9733 137.716 39.7133C138.548 39.4273 139.419 39.2843 140.329 39.2843C141.889 39.2843 143.098 39.7913 143.956 40.8053C144.84 41.7933 145.282 43.3923 145.282 45.6023C145.282 46.5123 145.243 47.4613 145.165 48.4493C145.113 49.4113 144.983 50.2563 144.775 50.9843C143.969 51.1663 143.059 51.2963 142.045 51.3743C141.031 51.4523 140.043 51.5173 139.081 51.5693C138.119 51.5953 137.326 51.6083 136.702 51.6083C136.104 51.6083 135.805 51.6083 135.805 51.6083L135.883 48.4103C135.883 48.4103 136.078 48.4233 136.468 48.4493C136.884 48.4493 137.391 48.4493 137.989 48.4493C138.613 48.4493 139.211 48.4233 139.783 48.3713C140.381 48.2933 140.862 48.1893 141.226 48.0593C141.304 47.7993 141.356 47.4613 141.382 47.0453C141.408 46.6293 141.421 46.2653 141.421 45.9533C141.421 44.6533 141.304 43.7953 141.07 43.3793C140.836 42.9633 140.407 42.7553 139.783 42.7553C139.419 42.7553 139.094 42.8983 138.808 43.1843C138.522 43.4443 138.288 43.8733 138.106 44.4713C137.924 45.0433 137.781 45.7973 137.677 46.7333C137.599 47.6693 137.56 48.8133 137.56 50.1653C137.56 51.1793 137.599 52.0373 137.677 52.7393C137.781 53.4413 137.937 54.0133 138.145 54.4553C138.353 54.8713 138.639 55.1833 139.003 55.3913C139.393 55.5993 139.874 55.7033 140.446 55.7033C141.2 55.7033 141.928 55.5993 142.63 55.3913C143.332 55.1833 144.021 54.9103 144.697 54.5723C144.827 54.9363 144.918 55.3783 144.97 55.8983C145.022 56.3923 145.048 56.8343 145.048 57.2243C145.048 57.7183 144.788 58.1473 144.268 58.5113C143.774 58.8493 143.111 59.1093 142.279 59.2913C141.447 59.4733 140.537 59.5643 139.549 59.5643ZM149.519 59.1743V41.0393C150.221 40.5453 151.027 40.1293 151.937 39.7913C152.873 39.4533 153.861 39.2843 154.901 39.2843C155.941 39.2843 156.643 39.4403 157.007 39.7523C157.371 40.0383 157.553 40.4933 157.553 41.1173C157.553 41.3773 157.527 41.7283 157.475 42.1703C157.423 42.5863 157.306 43.0153 157.124 43.4573C156.864 43.3273 156.604 43.2363 156.344 43.1843C156.084 43.1323 155.824 43.1063 155.564 43.1063C155.278 43.1063 154.953 43.1713 154.589 43.3013C154.225 43.4053 153.9 43.5743 153.614 43.8083L153.575 58.4333C153.575 58.6933 153.51 58.8753 153.38 58.9793C153.276 59.0573 152.938 59.1093 152.366 59.1353C151.82 59.1613 150.871 59.1743 149.519 59.1743ZM166.187 59.5643C165.277 59.5643 164.445 59.4343 163.691 59.1743C162.963 58.9143 162.326 58.4463 161.78 57.7703C161.234 57.0943 160.805 56.1583 160.493 54.9623C160.207 53.7663 160.064 52.2453 160.064 50.3993C160.064 48.0073 160.246 46.0833 160.61 44.6273C161 43.1453 161.507 42.0273 162.131 41.2733C162.781 40.4933 163.522 39.9733 164.354 39.7133C165.186 39.4273 166.057 39.2843 166.967 39.2843C168.527 39.2843 169.736 39.7913 170.594 40.8053C171.478 41.7933 171.92 43.3923 171.92 45.6023C171.92 46.5123 171.881 47.4613 171.803 48.4493C171.751 49.4113 171.621 50.2563 171.413 50.9843C170.607 51.1663 169.697 51.2963 168.683 51.3743C167.669 51.4523 166.681 51.5173 165.719 51.5693C164.757 51.5953 163.964 51.6083 163.34 51.6083C162.742 51.6083 162.443 51.6083 162.443 51.6083L162.521 48.4103C162.521 48.4103 162.716 48.4233 163.106 48.4493C163.522 48.4493 164.029 48.4493 164.627 48.4493C165.251 48.4493 165.849 48.4233 166.421 48.3713C167.019 48.2933 167.5 48.1893 167.864 48.0593C167.942 47.7993 167.994 47.4613 168.02 47.0453C168.046 46.6293 168.059 46.2653 168.059 45.9533C168.059 44.6533 167.942 43.7953 167.708 43.3793C167.474 42.9633 167.045 42.7553 166.421 42.7553C166.057 42.7553 165.732 42.8983 165.446 43.1843C165.16 43.4443 164.926 43.8733 164.744 44.4713C164.562 45.0433 164.419 45.7973 164.315 46.7333C164.237 47.6693 164.198 48.8133 164.198 50.1653C164.198 51.1793 164.237 52.0373 164.315 52.7393C164.419 53.4413 164.575 54.0133 164.783 54.4553C164.991 54.8713 165.277 55.1833 165.641 55.3913C166.031 55.5993 166.512 55.7033 167.084 55.7033C167.838 55.7033 168.566 55.5993 169.268 55.3913C169.97 55.1833 170.659 54.9103 171.335 54.5723C171.465 54.9363 171.556 55.3783 171.608 55.8983C171.66 56.3923 171.686 56.8343 171.686 57.2243C171.686 57.7183 171.426 58.1473 170.906 58.5113C170.412 58.8493 169.749 59.1093 168.917 59.2913C168.085 59.4733 167.175 59.5643 166.187 59.5643ZM176.156 59.1743V40.5713C176.598 40.3633 177.17 40.1683 177.872 39.9863C178.574 39.7783 179.315 39.6093 180.095 39.4793C180.875 39.3493 181.59 39.2843 182.24 39.2843C183.592 39.2843 184.671 39.4403 185.477 39.7523C186.283 40.0643 186.868 40.5973 187.232 41.3513C187.622 42.0793 187.817 43.0803 187.817 44.3543V58.4333C187.817 58.6933 187.752 58.8753 187.622 58.9793C187.492 59.0573 187.141 59.1093 186.569 59.1353C185.997 59.1613 185.035 59.1743 183.683 59.1743V45.6023C183.683 44.5103 183.579 43.7563 183.371 43.3403C183.189 42.9243 182.76 42.7163 182.084 42.7163C181.772 42.7163 181.434 42.7683 181.07 42.8723C180.706 42.9503 180.394 43.0803 180.134 43.2623V58.4333C180.134 58.6933 180.069 58.8753 179.939 58.9793C179.835 59.0573 179.497 59.1093 178.925 59.1353C178.379 59.1613 177.456 59.1743 176.156 59.1743Z" fill="black"/>
<defs>
<filter id="filter0_i_30_44" x="0" y="12.1743" width="226" height="73" filterUnits="userSpaceOnUse" color-interpolation-filters="sRGB">
<feFlood flood-opacity="0" result="BackgroundImageFix"/>
<feBlend mode="normal" in="SourceGraphic" in2="BackgroundImageFix" result="shape"/>
<feColorMatrix in="SourceAlpha" type="matrix" values="0 0 0 0 0 0 0 0 0 0 0 0 0 0 0 0 0 0 127 0" result="hardAlpha"/>
<feOffset dx="-8" dy="-8"/>
<feComposite in2="hardAlpha" operator="arithmetic" k2="-1" k3="1"/>
<feColorMatrix type="matrix" values="0 0 0 0 0 0 0 0 0 0 0 0 0 0 0 0 0 0 0.18 0"/>
<feBlend mode="normal" in2="shape" result="effect1_innerShadow_30_44"/>
</filter>
</defs>
</svg>
