<svg width="46" height="46" viewBox="0 0 46 46" fill="none" xmlns="http://www.w3.org/2000/svg">
<path d="M9.5 30.5938C13.6939 30.5938 17.0938 27.1939 17.0938 23C17.0938 18.8061 13.6939 15.4062 9.5 15.4062C5.30609 15.4062 1.90625 18.8061 1.90625 23C1.90625 27.1939 5.30609 30.5938 9.5 30.5938Z" fill="#BC93F0" stroke="black" stroke-width="3" stroke-linecap="round" stroke-linejoin="round"/>
<path d="M36.5 44.0938C40.6939 44.0938 44.0938 40.6939 44.0938 36.5C44.0938 32.3061 40.6939 28.9062 36.5 28.9062C32.3061 28.9062 28.9062 32.3061 28.9062 36.5C28.9062 40.6939 32.3061 44.0938 36.5 44.0938Z" fill="#BC93F0" stroke="black" stroke-width="3" stroke-linecap="round" stroke-linejoin="round"/>
<path d="M36.5 17.0938C40.6939 17.0938 44.0938 13.6939 44.0938 9.5C44.0938 5.30609 40.6939 1.90625 36.5 1.90625C32.3061 1.90625 28.9062 5.30609 28.9062 9.5C28.9062 13.6939 32.3061 17.0938 36.5 17.0938Z" fill="#BC93F0" stroke="black" stroke-width="3" stroke-linecap="round" stroke-linejoin="round"/>
<path d="M16.25 26.375L29.75 33.125M16.25 19.625L29.75 12.875" stroke="black" stroke-width="3" stroke-linecap="round" stroke-linejoin="round"/>
</svg>
