<svg width="226" height="196" viewBox="0 0 226 196" fill="none" xmlns="http://www.w3.org/2000/svg">
<rect width="226" height="183" transform="translate(0 13)" fill="#D0E7F4"/>
<g filter="url(#filter0_i_8_35)">
<rect y="13" width="226" height="73" rx="10" fill="#8470FF"/>
</g>
<rect x="1" y="14" width="224" height="71" rx="9" stroke="black" stroke-width="2"/>
<g style="mix-blend-mode:overlay">
<path d="M111.191 13.5L150.438 13.5L134.5 83.9863L93.7603 83.9862L111.191 13.5Z" fill="white" fill-opacity="0.4"/>
</g>
<path d="M49.0979 53.643L47.1869 47.949C47.1089 47.663 46.9789 47.208 46.7969 46.584C46.6149 45.934 46.4199 45.206 46.2119 44.4C46.0039 43.594 45.7829 42.775 45.5489 41.943C45.3409 41.085 45.1459 40.292 44.9639 39.564C44.7819 38.836 44.6259 38.251 44.4959 37.809C44.3919 37.367 44.3399 37.146 44.3399 37.146L45.8999 32.7L49.1759 42.996C49.3579 43.542 49.5139 44.062 49.6439 44.556C49.7739 45.05 49.8779 45.492 49.9559 45.882C50.0599 46.246 50.1379 46.545 50.1899 46.779C50.2419 46.987 50.2679 47.091 50.2679 47.091C50.2679 47.091 50.2939 46.987 50.3459 46.779C50.3979 46.545 50.4629 46.233 50.5409 45.843C50.6449 45.453 50.7489 45.024 50.8529 44.556C50.9829 44.088 51.1259 43.607 51.2819 43.113L54.2069 33.441L56.0399 37.224C56.0399 37.224 55.9749 37.445 55.8449 37.887C55.7409 38.303 55.5979 38.875 55.4159 39.603C55.2339 40.305 55.0259 41.085 54.7919 41.943C54.5839 42.775 54.3629 43.594 54.1289 44.4C53.8949 45.206 53.6869 45.921 53.5049 46.545C53.3489 47.169 53.2189 47.637 53.1149 47.949L51.1649 53.37C51.1129 53.552 50.9699 53.643 50.7359 53.643H49.0979ZM42.1559 60V33.441C42.1559 33.077 42.2339 32.869 42.3899 32.817C42.5459 32.739 42.7149 32.7 42.8969 32.7H45.8999L46.0949 39.33L45.0029 40.305C45.0029 40.305 45.0289 40.461 45.0809 40.773C45.1329 41.059 45.1849 41.475 45.2369 42.021C45.3149 42.567 45.3929 43.217 45.4709 43.971C45.5489 44.699 45.6269 45.492 45.7049 46.35C45.7829 47.182 45.8479 48.066 45.8999 49.002C45.9779 49.938 46.0169 50.887 46.0169 51.849L46.0949 59.259C46.0949 59.519 46.0299 59.701 45.8999 59.805C45.7699 59.883 45.4189 59.935 44.8469 59.961C44.3009 59.987 43.4039 60 42.1559 60ZM54.1679 60L54.3239 51.927C54.3499 50.965 54.3889 50.029 54.4409 49.119C54.5189 48.183 54.5969 47.286 54.6749 46.428C54.7529 45.544 54.8179 44.725 54.8699 43.971C54.9479 43.217 55.0129 42.567 55.0649 42.021C55.1429 41.475 55.2079 41.046 55.2599 40.734C55.3119 40.396 55.3379 40.227 55.3379 40.227L54.2069 39.369V33.441C54.2849 33.181 54.3629 32.999 54.4409 32.895C54.5449 32.765 54.7139 32.7 54.9479 32.7C56.0399 32.7 56.8069 32.7 57.2489 32.7C57.7169 32.7 57.9899 32.7 58.0679 32.7C58.1719 32.7 58.2239 32.7 58.2239 32.7V59.259C58.2239 59.519 58.1589 59.701 58.0289 59.805C57.9249 59.883 57.5999 59.935 57.0539 59.961C56.5079 59.987 55.5459 60 54.1679 60ZM68.5762 60.39C67.5622 60.39 66.6652 60.26 65.8852 60C65.1052 59.766 64.4552 59.298 63.9352 58.596C63.4412 57.868 63.0642 56.841 62.8042 55.515C62.5442 54.163 62.4142 52.395 62.4142 50.211C62.4142 46.675 62.9862 44.114 64.1302 42.528C65.2742 40.916 66.8602 40.11 68.8882 40.11C70.2922 40.11 71.4362 40.396 72.3202 40.968C73.2302 41.514 73.8932 42.515 74.3092 43.971C74.7512 45.427 74.9722 47.468 74.9722 50.094C74.9722 53.812 74.4262 56.464 73.3342 58.05C72.2682 59.61 70.6822 60.39 68.5762 60.39ZM68.6932 57.075C69.0572 57.075 69.3822 56.919 69.6682 56.607C69.9542 56.295 70.1752 55.645 70.3312 54.657C70.5132 53.669 70.6042 52.174 70.6042 50.172C70.6042 48.248 70.5392 46.805 70.4092 45.843C70.3052 44.855 70.1232 44.205 69.8632 43.893C69.6032 43.581 69.2392 43.425 68.7712 43.425C68.3812 43.425 68.0302 43.594 67.7182 43.932C67.4322 44.27 67.1982 44.933 67.0162 45.921C66.8602 46.883 66.7822 48.313 66.7822 50.211C66.7822 51.745 66.8212 52.98 66.8992 53.916C67.0032 54.852 67.1202 55.541 67.2502 55.983C67.4062 56.425 67.6012 56.724 67.8352 56.88C68.0952 57.01 68.3812 57.075 68.6932 57.075ZM82.9112 60.195C82.4172 60.195 82.0402 60.013 81.7802 59.649C81.5462 59.285 81.3642 58.83 81.2342 58.284L77.7242 41.67C77.6462 41.28 77.6462 41.007 77.7242 40.851C77.8282 40.695 78.1922 40.604 78.8162 40.578C79.4662 40.526 80.5322 40.5 82.0142 40.5L82.9112 46.311C83.0412 47.195 83.1582 48.183 83.2622 49.275C83.3922 50.367 83.5092 51.42 83.6132 52.434C83.7172 53.422 83.7952 54.241 83.8472 54.891C83.8992 55.515 83.9252 55.827 83.9252 55.827H84.0032C84.0032 55.827 84.0292 55.515 84.0812 54.891C84.1332 54.241 84.1982 53.422 84.2762 52.434C84.3802 51.42 84.4842 50.367 84.5882 49.275C84.7182 48.183 84.8482 47.195 84.9782 46.311L85.6802 41.319C85.7322 41.033 85.8102 40.838 85.9142 40.734C86.0442 40.63 86.3952 40.565 86.9672 40.539C87.5652 40.513 88.5402 40.5 89.8922 40.5L85.7972 60.039C85.4072 60.117 84.9262 60.156 84.3542 60.156C83.7822 60.182 83.3012 60.195 82.9112 60.195ZM93.6737 60V42.255C93.6737 41.657 93.7907 41.241 94.0247 41.007C94.2587 40.773 94.6617 40.63 95.2337 40.578C95.8057 40.526 96.6377 40.5 97.7297 40.5V59.259C97.7297 59.519 97.6647 59.701 97.5347 59.805C97.4307 59.883 97.0927 59.935 96.5207 59.961C95.9747 59.987 95.0257 60 93.6737 60ZM95.6237 38.433C94.9997 38.433 94.5187 38.225 94.1807 37.809C93.8427 37.393 93.6737 36.626 93.6737 35.508C93.6737 34.676 93.8427 34 94.1807 33.48C94.5447 32.96 95.1037 32.7 95.8577 32.7C96.6117 32.7 97.1187 32.895 97.3787 33.285C97.6387 33.675 97.7687 34.364 97.7687 35.352C97.7687 36.314 97.5737 37.068 97.1837 37.614C96.8197 38.16 96.2997 38.433 95.6237 38.433ZM108.132 60.39C107.222 60.39 106.39 60.26 105.636 60C104.908 59.74 104.271 59.272 103.725 58.596C103.179 57.92 102.75 56.984 102.438 55.788C102.152 54.592 102.009 53.071 102.009 51.225C102.009 48.833 102.191 46.909 102.555 45.453C102.945 43.971 103.452 42.853 104.076 42.099C104.726 41.319 105.467 40.799 106.299 40.539C107.131 40.253 108.002 40.11 108.912 40.11C110.472 40.11 111.681 40.617 112.539 41.631C113.423 42.619 113.865 44.218 113.865 46.428C113.865 47.338 113.826 48.287 113.748 49.275C113.696 50.237 113.566 51.082 113.358 51.81C112.552 51.992 111.642 52.122 110.628 52.2C109.614 52.278 108.626 52.343 107.664 52.395C106.702 52.421 105.909 52.434 105.285 52.434C104.687 52.434 104.388 52.434 104.388 52.434L104.466 49.236C104.466 49.236 104.661 49.249 105.051 49.275C105.467 49.275 105.974 49.275 106.572 49.275C107.196 49.275 107.794 49.249 108.366 49.197C108.964 49.119 109.445 49.015 109.809 48.885C109.887 48.625 109.939 48.287 109.965 47.871C109.991 47.455 110.004 47.091 110.004 46.779C110.004 45.479 109.887 44.621 109.653 44.205C109.419 43.789 108.99 43.581 108.366 43.581C108.002 43.581 107.677 43.724 107.391 44.01C107.105 44.27 106.871 44.699 106.689 45.297C106.507 45.869 106.364 46.623 106.26 47.559C106.182 48.495 106.143 49.639 106.143 50.991C106.143 52.005 106.182 52.863 106.26 53.565C106.364 54.267 106.52 54.839 106.728 55.281C106.936 55.697 107.222 56.009 107.586 56.217C107.976 56.425 108.457 56.529 109.029 56.529C109.783 56.529 110.511 56.425 111.213 56.217C111.915 56.009 112.604 55.736 113.28 55.398C113.41 55.762 113.501 56.204 113.553 56.724C113.605 57.218 113.631 57.66 113.631 58.05C113.631 58.544 113.371 58.973 112.851 59.337C112.357 59.675 111.694 59.935 110.862 60.117C110.03 60.299 109.12 60.39 108.132 60.39ZM124.927 53.643L123.016 47.949C122.938 47.663 122.808 47.208 122.626 46.584C122.444 45.934 122.249 45.206 122.041 44.4C121.833 43.594 121.612 42.775 121.378 41.943C121.17 41.085 120.975 40.292 120.793 39.564C120.611 38.836 120.455 38.251 120.325 37.809C120.221 37.367 120.169 37.146 120.169 37.146L121.729 32.7L125.005 42.996C125.187 43.542 125.343 44.062 125.473 44.556C125.603 45.05 125.707 45.492 125.785 45.882C125.889 46.246 125.967 46.545 126.019 46.779C126.071 46.987 126.097 47.091 126.097 47.091C126.097 47.091 126.123 46.987 126.175 46.779C126.227 46.545 126.292 46.233 126.37 45.843C126.474 45.453 126.578 45.024 126.682 44.556C126.812 44.088 126.955 43.607 127.111 43.113L130.036 33.441L131.869 37.224C131.869 37.224 131.804 37.445 131.674 37.887C131.57 38.303 131.427 38.875 131.245 39.603C131.063 40.305 130.855 41.085 130.621 41.943C130.413 42.775 130.192 43.594 129.958 44.4C129.724 45.206 129.516 45.921 129.334 46.545C129.178 47.169 129.048 47.637 128.944 47.949L126.994 53.37C126.942 53.552 126.799 53.643 126.565 53.643H124.927ZM117.985 60V33.441C117.985 33.077 118.063 32.869 118.219 32.817C118.375 32.739 118.544 32.7 118.726 32.7H121.729L121.924 39.33L120.832 40.305C120.832 40.305 120.858 40.461 120.91 40.773C120.962 41.059 121.014 41.475 121.066 42.021C121.144 42.567 121.222 43.217 121.3 43.971C121.378 44.699 121.456 45.492 121.534 46.35C121.612 47.182 121.677 48.066 121.729 49.002C121.807 49.938 121.846 50.887 121.846 51.849L121.924 59.259C121.924 59.519 121.859 59.701 121.729 59.805C121.599 59.883 121.248 59.935 120.676 59.961C120.13 59.987 119.233 60 117.985 60ZM129.997 60L130.153 51.927C130.179 50.965 130.218 50.029 130.27 49.119C130.348 48.183 130.426 47.286 130.504 46.428C130.582 45.544 130.647 44.725 130.699 43.971C130.777 43.217 130.842 42.567 130.894 42.021C130.972 41.475 131.037 41.046 131.089 40.734C131.141 40.396 131.167 40.227 131.167 40.227L130.036 39.369V33.441C130.114 33.181 130.192 32.999 130.27 32.895C130.374 32.765 130.543 32.7 130.777 32.7C131.869 32.7 132.636 32.7 133.078 32.7C133.546 32.7 133.819 32.7 133.897 32.7C134.001 32.7 134.053 32.7 134.053 32.7V59.259C134.053 59.519 133.988 59.701 133.858 59.805C133.754 59.883 133.429 59.935 132.883 59.961C132.337 59.987 131.375 60 129.997 60ZM144.405 60.39C143.391 60.39 142.494 60.26 141.714 60C140.934 59.766 140.284 59.298 139.764 58.596C139.27 57.868 138.893 56.841 138.633 55.515C138.373 54.163 138.243 52.395 138.243 50.211C138.243 46.675 138.815 44.114 139.959 42.528C141.103 40.916 142.689 40.11 144.717 40.11C146.121 40.11 147.265 40.396 148.149 40.968C149.059 41.514 149.722 42.515 150.138 43.971C150.58 45.427 150.801 47.468 150.801 50.094C150.801 53.812 150.255 56.464 149.163 58.05C148.097 59.61 146.511 60.39 144.405 60.39ZM144.522 57.075C144.886 57.075 145.211 56.919 145.497 56.607C145.783 56.295 146.004 55.645 146.16 54.657C146.342 53.669 146.433 52.174 146.433 50.172C146.433 48.248 146.368 46.805 146.238 45.843C146.134 44.855 145.952 44.205 145.692 43.893C145.432 43.581 145.068 43.425 144.6 43.425C144.21 43.425 143.859 43.594 143.547 43.932C143.261 44.27 143.027 44.933 142.845 45.921C142.689 46.883 142.611 48.313 142.611 50.211C142.611 51.745 142.65 52.98 142.728 53.916C142.832 54.852 142.949 55.541 143.079 55.983C143.235 56.425 143.43 56.724 143.664 56.88C143.924 57.01 144.21 57.075 144.522 57.075ZM160.676 60.39C159.662 60.39 158.765 60.26 157.985 60C157.205 59.766 156.555 59.298 156.035 58.596C155.541 57.868 155.164 56.841 154.904 55.515C154.644 54.163 154.514 52.395 154.514 50.211C154.514 46.675 155.086 44.114 156.23 42.528C157.374 40.916 158.96 40.11 160.988 40.11C162.392 40.11 163.536 40.396 164.42 40.968C165.33 41.514 165.993 42.515 166.409 43.971C166.851 45.427 167.072 47.468 167.072 50.094C167.072 53.812 166.526 56.464 165.434 58.05C164.368 59.61 162.782 60.39 160.676 60.39ZM160.793 57.075C161.157 57.075 161.482 56.919 161.768 56.607C162.054 56.295 162.275 55.645 162.431 54.657C162.613 53.669 162.704 52.174 162.704 50.172C162.704 48.248 162.639 46.805 162.509 45.843C162.405 44.855 162.223 44.205 161.963 43.893C161.703 43.581 161.339 43.425 160.871 43.425C160.481 43.425 160.13 43.594 159.818 43.932C159.532 44.27 159.298 44.933 159.116 45.921C158.96 46.883 158.882 48.313 158.882 50.211C158.882 51.745 158.921 52.98 158.999 53.916C159.103 54.852 159.22 55.541 159.35 55.983C159.506 56.425 159.701 56.724 159.935 56.88C160.195 57.01 160.481 57.075 160.793 57.075ZM177.18 60.39C176.322 60.39 175.516 60.286 174.762 60.078C174.008 59.896 173.332 59.493 172.734 58.869C172.136 58.245 171.668 57.309 171.33 56.061C170.992 54.813 170.823 53.149 170.823 51.069C170.823 48.443 171.07 46.324 171.564 44.712C172.058 43.1 172.721 41.93 173.553 41.202C174.385 40.474 175.334 40.11 176.4 40.11C176.946 40.11 177.414 40.175 177.804 40.305C178.22 40.435 178.571 40.617 178.857 40.851V33.09C178.857 32.492 178.948 32.076 179.13 31.842C179.338 31.608 179.728 31.465 180.3 31.413C180.898 31.361 181.743 31.335 182.835 31.335V59.22C182.185 59.506 181.392 59.766 180.456 60C179.52 60.26 178.428 60.39 177.18 60.39ZM177.219 56.88C177.531 56.88 177.817 56.841 178.077 56.763C178.363 56.685 178.623 56.568 178.857 56.412V43.815C178.701 43.711 178.519 43.646 178.311 43.62C178.129 43.568 177.934 43.542 177.726 43.542C177.466 43.542 177.193 43.607 176.907 43.737C176.621 43.867 176.348 44.179 176.088 44.673C175.854 45.141 175.659 45.843 175.503 46.779C175.373 47.715 175.308 48.989 175.308 50.601C175.308 51.875 175.347 52.915 175.425 53.721C175.503 54.527 175.62 55.164 175.776 55.632C175.932 56.1 176.127 56.425 176.361 56.607C176.621 56.789 176.907 56.88 177.219 56.88Z" fill="black"/>
<g filter="url(#filter1_d_8_35)">
<circle cx="113.5" cy="130.5" r="57.5" fill="#BC93F0"/>
<circle cx="113.5" cy="130.5" r="56.5" stroke="black" stroke-width="2"/>
</g>
<g clip-path="url(#clip0_8_35)">
<path d="M82.5312 135.475L77.1155 120.002M72.0866 130.447L87.5601 125.031" stroke="black" stroke-width="2" stroke-linecap="round" stroke-linejoin="round"/>
<path d="M88.0759 101.692L91.6863 112.007M84.7233 108.655L95.0389 105.044" stroke="black" stroke-width="2" stroke-linecap="round" stroke-linejoin="round"/>
<g filter="url(#filter2_d_8_35)">
<path d="M86.8863 148.642C92.4465 148.29 97.8128 146.464 102.434 143.352C107.055 140.24 110.765 135.954 113.182 130.934C115.598 125.914 116.636 120.342 116.187 114.788C115.738 109.235 113.819 103.902 110.627 99.3352C116.105 98.9775 121.581 100.061 126.51 102.479C131.439 104.896 135.649 108.563 138.72 113.113C141.791 117.664 143.616 122.94 144.013 128.415C144.411 133.891 143.367 139.375 140.985 144.321C138.604 149.267 134.968 153.504 130.439 156.607C125.911 159.711 120.649 161.575 115.176 162.012C109.704 162.449 104.212 161.445 99.2488 159.099C94.2853 156.753 90.0229 153.148 86.8863 148.642Z" fill="#CBCAFF"/>
<path d="M86.8863 148.642C92.4465 148.29 97.8128 146.464 102.434 143.352C107.055 140.24 110.765 135.954 113.182 130.934C115.598 125.914 116.636 120.342 116.187 114.788C115.738 109.235 113.819 103.902 110.627 99.3352C116.105 98.9775 121.581 100.061 126.51 102.479C131.439 104.896 135.649 108.563 138.72 113.113C141.791 117.664 143.616 122.94 144.013 128.415C144.411 133.891 143.367 139.375 140.985 144.321C138.604 149.267 134.968 153.504 130.439 156.607C125.911 159.711 120.649 161.575 115.176 162.012C109.704 162.449 104.212 161.445 99.2488 159.099C94.2853 156.753 90.0229 153.148 86.8863 148.642Z" stroke="black" stroke-width="2" stroke-linecap="round" stroke-linejoin="round"/>
</g>
<circle r="4.70797" transform="matrix(-0.943858 0.33035 0.33035 0.943858 122.417 125.88)" fill="black"/>
<path d="M121.37 141.211C111.401 145.304 108.991 138.417 108.991 138.417" stroke="black" stroke-width="2" stroke-linecap="round"/>
<circle r="1.34513" transform="matrix(-0.943858 0.33035 0.33035 0.943858 121.116 124.198)" fill="white"/>
</g>
<defs>
<filter id="filter0_i_8_35" x="0" y="13" width="226" height="73" filterUnits="userSpaceOnUse" color-interpolation-filters="sRGB">
<feFlood flood-opacity="0" result="BackgroundImageFix"/>
<feBlend mode="normal" in="SourceGraphic" in2="BackgroundImageFix" result="shape"/>
<feColorMatrix in="SourceAlpha" type="matrix" values="0 0 0 0 0 0 0 0 0 0 0 0 0 0 0 0 0 0 127 0" result="hardAlpha"/>
<feOffset dx="-8" dy="-8"/>
<feComposite in2="hardAlpha" operator="arithmetic" k2="-1" k3="1"/>
<feColorMatrix type="matrix" values="0 0 0 0 0 0 0 0 0 0 0 0 0 0 0 0 0 0 0.18 0"/>
<feBlend mode="normal" in2="shape" result="effect1_innerShadow_8_35"/>
</filter>
<filter id="filter1_d_8_35" x="56" y="73" width="118" height="119" filterUnits="userSpaceOnUse" color-interpolation-filters="sRGB">
<feFlood flood-opacity="0" result="BackgroundImageFix"/>
<feColorMatrix in="SourceAlpha" type="matrix" values="0 0 0 0 0 0 0 0 0 0 0 0 0 0 0 0 0 0 127 0" result="hardAlpha"/>
<feOffset dx="3" dy="4"/>
<feComposite in2="hardAlpha" operator="out"/>
<feColorMatrix type="matrix" values="0 0 0 0 0.472071 0 0 0 0 0.184948 0 0 0 0 0.8375 0 0 0 1 0"/>
<feBlend mode="normal" in2="BackgroundImageFix" result="effect1_dropShadow_8_35"/>
<feBlend mode="normal" in="SourceGraphic" in2="effect1_dropShadow_8_35" result="shape"/>
</filter>
<filter id="filter2_d_8_35" x="85.8863" y="98.2684" width="62.2096" height="68.843" filterUnits="userSpaceOnUse" color-interpolation-filters="sRGB">
<feFlood flood-opacity="0" result="BackgroundImageFix"/>
<feColorMatrix in="SourceAlpha" type="matrix" values="0 0 0 0 0 0 0 0 0 0 0 0 0 0 0 0 0 0 127 0" result="hardAlpha"/>
<feOffset dx="3" dy="4"/>
<feComposite in2="hardAlpha" operator="out"/>
<feColorMatrix type="matrix" values="0 0 0 0 0.472071 0 0 0 0 0.184948 0 0 0 0 0.8375 0 0 0 1 0"/>
<feBlend mode="normal" in2="BackgroundImageFix" result="effect1_dropShadow_8_35"/>
<feBlend mode="normal" in="SourceGraphic" in2="effect1_dropShadow_8_35" result="shape"/>
</filter>
<clipPath id="clip0_8_35">
<rect width="87.4338" height="87.4338" fill="white" transform="matrix(-0.943858 0.33035 0.33035 0.943858 139.525 75)"/>
</clipPath>
</defs>
</svg>
